<svg id="暂无数据" xmlns="http://www.w3.org/2000/svg" width="240" height="200" viewBox="0 0 203 200">
  <defs>
    <style>
      .lg-empty-icon-a-1 {
        fill: #f7f7f7;
      }

      .lg-empty-icon-a-2 {
        fill: #aeb8c2;
      }

      .lg-empty-icon-a-2, .lg-empty-icon-a-6, .lg-empty-icon-a-7 {
        fill-rule: evenodd;
      }

      .lg-empty-icon-a-3 {
        fill: #f5f5f7;
      }

      .lg-empty-icon-a-4, .lg-empty-icon-a-6 {
        fill: #dce0e6;
      }

      .lg-empty-icon-a-5 {
        fill: #dce1e6;
      }

      .lg-empty-icon-a-7 {
        fill: #fff;
      }
    </style>
  </defs>
  <ellipse id="椭圆_1" data-name="椭圆 1" class="lg-empty-icon-a-1" cx="100.5" cy="187" rx="87.5" ry="13"/>
  <path id="矩形_2" data-name="矩形 2" class="lg-empty-icon-a-2" d="M457,348H557l20,31H437Z" transform="translate(-407 -244)"/>
  <rect id="矩形_3" data-name="矩形 3" class="lg-empty-icon-a-3" x="51" y="42" width="100" height="129" rx="4" ry="4"/>
  <rect id="矩形_4" data-name="矩形 4" class="lg-empty-icon-a-4" x="64" y="54" width="74" height="40" rx="4" ry="4"/>
  <rect id="矩形_5" data-name="矩形 5" class="lg-empty-icon-a-5" x="64" y="106" width="73" height="6" rx="3" ry="3"/>
  <rect id="矩形_5_拷贝" data-name="矩形 5 拷贝" class="lg-empty-icon-a-5" x="64" y="120" width="73" height="6" rx="3" ry="3"/>
  <path id="形状_1" data-name="形状 1" class="lg-empty-icon-a-6" d="M570,433H444a8,8,0,0,1-8-8V381a2,2,0,0,1,2-2h32c4.633,0,8,.924,8,8s11,6,11,6h38c3.355,0,11,1.349,11-6,0-6.711,4.013-7.845,5.962-8H576a2,2,0,0,1,2,2v44A8,8,0,0,1,570,433Z" transform="translate(-407 -244)"/>
  <g id="组_1" data-name="组 1">
    <path id="椭圆_2" data-name="椭圆 2" class="lg-empty-icon-a-6" d="M593,292a32.8,32.8,0,0,1-18.068-5.246L577,288l-11,4,3.591-9.875A21.267,21.267,0,0,1,564,268c0-13.255,12.984-24,29-24s29,10.745,29,24S609.016,292,593,292Z" transform="translate(-407 -244)"/>
    <path id="椭圆_3_拷贝_2" data-name="椭圆 3 拷贝 2" class="lg-empty-icon-a-7" d="M582,265a4,4,0,1,1-4,4A4,4,0,0,1,582,265Zm12,0a4,4,0,1,1-4,4A4,4,0,0,1,594,265Zm12,0a4,4,0,1,1-4,4A4,4,0,0,1,606,265Z" transform="translate(-407 -244)"/>
  </g>
</svg>
