<svg xmlns="http://www.w3.org/2000/svg" width="128.583" height="99.549" viewBox="0 0 128.583 99.549">
  <defs>
    <style>
      .tag-seal-undone-1 {
        opacity: 0.3;
      }

      .tag-seal-undone-2, .tag-seal-undone-4, .tag-seal-undone-5 {
        fill: none;
      }

      .tag-seal-undone-2, .tag-seal-undone-3, .tag-seal-undone-4, .tag-seal-undone-5 {
        stroke: #ff3c00;
      }

      .tag-seal-undone-2 {
        stroke-width: 0.513px;
      }

      .tag-seal-undone-3 {
        fill: #f0f7ff;
        fill-opacity: 0;
        stroke-linejoin: round;
        stroke-width: 2px;
        opacity: 0.82;
      }

      .tag-seal-undone-4, .tag-seal-undone-5 {
        stroke-width: 0.583px;
      }

      .tag-seal-undone-5, .tag-seal-undone-6 {
        fill-rule: evenodd;
      }

      .tag-seal-undone-6 {
        fill: #ff3c00;
        opacity: 0.7;
      }
    </style>
  </defs>
  <g id="科研状态-未完成" class="tag-seal-undone-1">
    <circle id="椭圆_882" data-name="椭圆 882" class="tag-seal-undone-2" cx="65.292" cy="49.774" r="49.531"/>
    <circle id="椭圆_882_拷贝_2" data-name="椭圆 882 拷贝 2" class="tag-seal-undone-3" cx="65.292" cy="49.774" r="34"/>
    <circle id="椭圆_882_拷贝_3" data-name="椭圆 882 拷贝 3" class="tag-seal-undone-4" cx="65.292" cy="49.774" r="29"/>
    <g id="组_22" data-name="组 22" class="tag-seal-undone-1">
      <path id="形状_887_拷贝" data-name="形状 887 拷贝" class="tag-seal-undone-5" d="M546.007,901.664s4.986-12.2,31.5-15.329c8.771-1.034,15.209-10.853,24.126-15.169,11.022-5.336,18.222-2.165,25.238-5.777,11.186-5.757,7.736-6.569,16.775-11.872,7.073-4.149,16.835-2.456,16.835-2.456" transform="translate(-545.708 -839.226)"/>
      <path id="形状_887_拷贝_2" data-name="形状 887 拷贝 2" class="tag-seal-undone-5" d="M547.255,904.613s5.006-12.16,31.5-15.321c8.766-1.046,15.217-10.834,24.135-15.149,11.023-5.333,18.212-2.189,25.229-5.8,11.187-5.754,7.741-6.555,16.783-11.852,7.075-4.145,16.826-2.477,16.826-2.477" transform="translate(-545.708 -839.226)"/>
      <path id="形状_887_拷贝_3" data-name="形状 887 拷贝 3" class="tag-seal-undone-5" d="M548.5,907.547s5.024-12.116,31.5-15.313c8.761-1.058,15.225-10.816,24.144-15.128,11.024-5.331,18.2-2.215,25.219-5.821,11.19-5.75,7.748-6.541,16.792-11.832,7.077-4.14,16.817-2.5,16.817-2.5" transform="translate(-545.708 -839.226)"/>
      <path id="形状_887_拷贝_4" data-name="形状 887 拷贝 4" class="tag-seal-undone-5" d="M549.733,910.465s5.042-12.072,31.506-15.305c8.756-1.07,15.233-10.8,24.153-15.107,11.025-5.328,18.191-2.24,25.21-5.843,11.191-5.746,7.754-6.527,16.8-11.811,7.079-4.136,16.808-2.519,16.808-2.519" transform="translate(-545.708 -839.226)"/>
      <path id="形状_887_拷贝_5" data-name="形状 887 拷贝 5" class="tag-seal-undone-5" d="M550.962,913.369s5.061-12.029,31.51-15.3c8.751-1.082,15.24-10.778,24.161-15.087,11.026-5.325,18.18-2.263,25.2-5.865,11.192-5.741,7.759-6.512,16.809-11.791,7.081-4.13,16.8-2.539,16.8-2.539" transform="translate(-545.708 -839.226)"/>
      <path id="形状_887_拷贝_6" data-name="形状 887 拷贝 6" class="tag-seal-undone-5" d="M552.185,916.257s5.079-11.986,31.513-15.29c8.746-1.093,15.248-10.76,24.17-15.066,11.027-5.323,18.17-2.288,25.191-5.887,11.2-5.737,7.766-6.5,16.818-11.771,7.083-4.126,16.79-2.56,16.79-2.56" transform="translate(-545.708 -839.226)"/>
      <path id="形状_887_拷贝_7" data-name="形状 887 拷贝 7" class="tag-seal-undone-5" d="M553.4,919.131s5.1-11.943,31.516-15.283c8.741-1.1,15.256-10.741,24.178-15.046,11.029-5.32,18.16-2.312,25.183-5.908,11.2-5.734,7.771-6.485,16.825-11.751,7.085-4.122,16.782-2.581,16.782-2.581" transform="translate(-545.708 -839.226)"/>
      <path id="形状_887_拷贝_8" data-name="形状 887 拷贝 8" class="tag-seal-undone-5" d="M554.612,921.989s5.116-11.9,31.519-15.275c8.736-1.117,15.264-10.723,24.187-15.025,11.03-5.318,18.15-2.337,25.174-5.931,11.2-5.729,7.777-6.471,16.833-11.731,7.088-4.116,16.774-2.6,16.774-2.6" transform="translate(-545.708 -839.226)"/>
      <path id="形状_887_拷贝_9" data-name="形状 887 拷贝 9" class="tag-seal-undone-5" d="M555.816,924.833s5.133-11.858,31.523-15.268c8.731-1.128,15.271-10.705,24.195-15.005,11.031-5.315,18.139-2.361,25.164-5.952,11.2-5.725,7.783-6.457,16.843-11.712,7.088-4.111,16.764-2.621,16.764-2.621" transform="translate(-545.708 -839.226)"/>
      <path id="形状_887_拷贝_10" data-name="形状 887 拷贝 10" class="tag-seal-undone-5" d="M557.014,927.662s5.151-11.815,31.525-15.26c8.726-1.14,15.279-10.687,24.2-14.985,11.032-5.313,18.13-2.385,25.156-5.974,11.2-5.721,7.788-6.443,16.85-11.692,7.091-4.107,16.756-2.641,16.756-2.641" transform="translate(-545.708 -839.226)"/>
      <path id="形状_887_拷贝_11" data-name="形状 887 拷贝 11" class="tag-seal-undone-5" d="M558.262,930.609s5.151-11.815,31.525-15.26c8.726-1.14,15.279-10.687,24.2-14.985,11.032-5.313,18.13-2.385,25.155-5.973,11.2-5.722,7.789-6.444,16.851-11.693,7.091-4.107,16.756-2.641,16.756-2.641" transform="translate(-545.708 -839.226)"/>
      <path id="形状_887_拷贝_12" data-name="形状 887 拷贝 12" class="tag-seal-undone-5" d="M559.51,933.557s5.151-11.816,31.525-15.261c8.726-1.14,15.279-10.687,24.2-14.985,11.032-5.313,18.129-2.384,25.155-5.973,11.2-5.721,7.789-6.444,16.851-11.692C664.336,881.539,674,883,674,883" transform="translate(-545.708 -839.226)"/>
    </g>
    <path id="多边形_1_拷贝_3" data-name="多边形 1 拷贝 3" class="tag-seal-undone-6" d="M576.4,861.921l0.3,4.788,4.448,1.134-4.261,1.807,0.315,4.786-2.93-3.671-4.254,1.825,2.449-4.076-2.943-3.659,4.444,1.152Z" transform="translate(-545.708 -839.226)"/>
    <path id="多边形_1_拷贝_3-2" data-name="多边形 1 拷贝 3" class="tag-seal-undone-6" d="M590.339,849.8l-1.94,4.389,3.429,3.045-4.617-.346-1.924,4.4-0.913-4.6-4.619-.329,4.053-2.5-0.93-4.6,3.417,3.059Z" transform="translate(-545.708 -839.226)"/>
    <path id="多边形_1_拷贝_3-3" data-name="多边形 1 拷贝 3" class="tag-seal-undone-6" d="M608.657,845.417l-3.556,3.23,1.9,4.17-4.081-2.181-3.544,3.242,1.033-4.577-4.09-2.165,4.72-.649,1.015-4.581,1.884,4.177Z" transform="translate(-545.708 -839.226)"/>
  </g>
</svg>
